<svg display="none" xmlns="http://www.w3.org/2000/svg">

	<symbol id="arrow" viewBox="0 0 12 10">
		<svg width="12" height="10">
			<path
				d="M7.5621 0.198869L11.8047 4.51989C12.0651 4.78505 12.0651 5.21495 11.8047 5.48011L7.5621 9.80113C7.30175 10.0663 6.87964 10.0663 6.61929 9.80113C6.35894 9.53597 6.35894 9.10606 6.61929 8.8409L9.72386 5.67898L0.666666 5.67898C0.298476 5.67898 -2.34948e-07 5.37499 -2.18557e-07 5C-2.02166e-07 4.62501 0.298476 4.32102 0.666666 4.32102L9.72386 4.32102L6.61929 1.1591C6.35894 0.893936 6.35894 0.464029 6.61929 0.198869C6.87964 -0.0662899 7.30175 -0.0662901 7.5621 0.198869Z" />
		</svg>
	</symbol>

	<symbol id="like" viewBox="0 0 18 18">
		<svg width="18" height="18">
			<path fill-rule="evenodd" clip-rule="evenodd"
				d="M10.0319 5.64047L9.60067 8.00002H11.9993H13.6306C14.0408 8.00002 14.5862 8.22436 15.1035 8.93474C15.6195 9.6433 16 10.7206 16 12C16 13.2795 15.6195 14.3567 15.1035 15.0653C14.5862 15.7757 14.0408 16 13.6306 16H6.00001V7.91481L6.48336 6.78911L8.20189 2.78677C8.31439 2.61539 8.57049 2.39753 8.99786 2.27755C9.46791 2.1456 9.86607 2.21258 10.0681 2.32027C10.363 2.47746 10.4733 2.5964 10.5057 2.63689C10.5293 2.66637 10.5326 2.67768 10.5373 2.70122C10.5458 2.74402 10.5556 2.84279 10.5319 3.04007C10.507 3.24785 10.4583 3.47318 10.3842 3.80466L10.3812 3.81838C10.3434 3.9873 10.2978 4.19096 10.2594 4.39575L10.2593 4.39575L10.2576 4.4055L10.0319 5.64047ZM11.0089 0.555375C9.5208 -0.237904 7.22587 0.360655 6.40938 1.89231L4.64561 6.00002L4 6.00001H1C0.447715 6.00001 0 6.44773 0 7.00001V17C0 17.5523 0.447715 18 1 18L4.00001 18H6.00001H13.6306C16.0437 18 18 15.3137 18 12C18 8.87025 16.2549 6.30017 14.0279 6.02449C13.8971 6.00829 13.7645 6.00002 13.6306 6.00002H11.9993L12.225 4.76504C12.2571 4.59424 12.2962 4.41906 12.336 4.241L12.3361 4.24055C12.3539 4.1609 12.3719 4.08068 12.3894 4.00002C12.6481 2.80622 12.8091 1.51499 11.0089 0.555375ZM2 16V8.00001H4V16H2Z" />
		</svg>
	</symbol>

	<symbol id="hi" viewBox="0 0 18 19">
		<svg width="18" height="19">
			<path fill-rule="evenodd" clip-rule="evenodd"
				d="M16.0374 3.41361C16.0376 3.41361 16.0364 3.41607 16.0332 3.42098C16.0356 3.41606 16.0372 3.41361 16.0374 3.41361ZM15.861 3.6C15.6367 3.40701 15.2392 3.15857 14.6212 2.91137C13.2825 2.3759 11.296 2 9 2C6.70402 2 4.7175 2.3759 3.37882 2.91137C2.76081 3.15857 2.36329 3.40701 2.13903 3.6C2.36329 3.79299 2.76081 4.04143 3.37882 4.28863C4.7175 4.8241 6.70402 5.2 9 5.2C11.296 5.2 13.2825 4.8241 14.6212 4.28863C15.2392 4.04143 15.6367 3.79299 15.861 3.6ZM1.96261 3.41361C1.96279 3.41361 1.96439 3.41606 1.96682 3.42097C1.96363 3.41607 1.96242 3.41361 1.96261 3.41361ZM1.96261 3.78639C1.96242 3.78639 1.96363 3.78393 1.96682 3.77903C1.96439 3.78394 1.96279 3.78639 1.96261 3.78639ZM16.0332 3.77902C16.0364 3.78393 16.0376 3.78639 16.0374 3.78639C16.0372 3.78639 16.0356 3.78394 16.0332 3.77902ZM9 7.2C11.8273 7.2 14.35 6.67853 16 5.86293V7C16 7.02553 15.9898 7.16958 15.7079 7.41948C15.4272 7.66834 14.964 7.93815 14.3057 8.18499C12.9966 8.67591 11.121 9 9 9C6.87903 9 5.0034 8.67591 3.69427 8.18499C3.03602 7.93815 2.57279 7.66834 2.29209 7.41948C2.01022 7.16958 2 7.02553 2 7V5.86293C3.64996 6.67853 6.17273 7.2 9 7.2ZM15.008 10.0576C15.3574 9.92662 15.6909 9.77981 16 9.61619V10.6246C16 10.7187 15.9574 10.9043 15.6773 11.1744C15.3943 11.4473 14.9322 11.7391 14.2793 12.0053C12.9785 12.5357 11.1125 12.8867 9 12.8867C6.88755 12.8867 5.02154 12.5357 3.72073 12.0053C3.06782 11.7391 2.60574 11.4473 2.32273 11.1744C2.04256 10.9043 2 10.7187 2 10.6246V9.61619C2.3091 9.77981 2.64262 9.92662 2.99202 10.0576C4.57833 10.6525 6.70269 11 9 11C11.2973 11 13.4217 10.6525 15.008 10.0576ZM0 7V8V10.6246C0 10.7532 0.0102923 10.8784 0.0297398 11H0V14.6246C0 15.4313 0.40515 16.1038 0.934625 16.6143C1.46126 17.122 2.17075 17.5332 2.96556 17.8573C4.56018 18.5075 6.69417 18.8867 9 18.8867C11.3058 18.8867 13.4398 18.5075 15.0344 17.8573C15.8292 17.5332 16.5387 17.122 17.0654 16.6143C17.5948 16.1038 18 15.4313 18 14.6246V11H17.9703C17.9897 10.8784 18 10.7532 18 10.6246V8V7V4H17.9451C17.9814 3.86867 18 3.7352 18 3.6C18 1.61177 13.9706 0 9 0C4.02944 0 0 1.61177 0 3.6C0 3.7352 0.0186333 3.86867 0.0549288 4H0V7ZM16 13.3928C15.6989 13.564 15.3745 13.7186 15.0344 13.8572C13.4398 14.5075 11.3058 14.8867 9 14.8867C6.69417 14.8867 4.56018 14.5075 2.96556 13.8572C2.62555 13.7186 2.30115 13.564 2 13.3928V14.6246C2 14.7187 2.04256 14.9043 2.32273 15.1744C2.60574 15.4473 3.06782 15.7391 3.72073 16.0053C5.02154 16.5357 6.88755 16.8867 9 16.8867C11.1125 16.8867 12.9785 16.5357 14.2793 16.0053C14.9322 15.7391 15.3943 15.4473 15.6773 15.1744C15.9574 14.9043 16 14.7187 16 14.6246V13.3928Z" />
		</svg>
	</symbol>



</svg>